<?xml version="1.0" encoding="UTF-8" standalone="no"?>
<!DOCTYPE svg PUBLIC "-//W3C//DTD SVG 1.1//EN" "http://www.w3.org/Graphics/SVG/1.1/DTD/svg11.dtd">
<svg width="100%" height="100%" viewBox="0 0 1226 1226" version="1.1" xmlns="http://www.w3.org/2000/svg" xmlns:xlink="http://www.w3.org/1999/xlink" xml:space="preserve" xmlns:serif="http://www.serif.com/" style="fill-rule:evenodd;clip-rule:evenodd;stroke-linejoin:round;stroke-miterlimit:2;">
    <g transform="matrix(1,0,0,1,-5973,-4189)">
        <g transform="matrix(1,0,0,1,6906.97,458.177)">
            <rect id="Logo_B-W" serif:id="Logo_B+W" x="-933.147" y="3731.37" width="1224.61" height="1224.61" style="fill:none;"/>
            <g id="Logo_B-W1" serif:id="Logo_B+W">
                <g transform="matrix(0.335527,0,0,0.217107,-764.031,3790.05)">
                    <g transform="matrix(1.32,0,0,2.04,6.10432e-14,7.28077e-12)">
                        <path d="M1000.66,0C1552.94,0 2001.32,448.382 2001.32,1000.66C2001.32,1552.94 1552.94,2001.32 1000.66,2001.32L1000.66,2500L0,2500L0,0L1000.66,0Z" style="fill:white;"/>
                    </g>
                    <g transform="matrix(1.32,0,0,2.04,6.10432e-14,7.28077e-12)">
                        <path d="M1912.69,1411.9C1912.55,1412.24 1912.41,1412.57 1912.26,1412.88C1852.93,1543.45 1766.33,1659.05 1659.74,1752.4C1628.4,1779.87 1588.55,1795.69 1546.9,1797.19C1539.14,1797.45 1531.33,1797.25 1523.51,1796.57L1523.5,1796.57C1471.12,1792.03 1425.43,1767.02 1393.63,1730.09C1354.75,1760.94 1304.45,1777.56 1251.09,1772.92C1197.88,1768.3 1148.68,1742.74 1114.33,1701.84C1104.55,1690.2 1096.19,1677.59 1089.36,1664.28C1089.36,1664.28 939.282,1718.9 876.203,1741.86C861.067,1747.37 844.33,1739.56 838.821,1724.43C838.544,1723.67 838.266,1722.9 837.989,1722.14C835.344,1714.87 835.694,1706.85 838.963,1699.84C842.232,1692.83 848.152,1687.41 855.421,1684.76C931.906,1656.92 1142.1,1580.42 1142.1,1580.42C1203.37,1558.12 1234.96,1490.38 1212.66,1429.11L1212.65,1429.1C1190.36,1367.84 1122.61,1336.25 1061.35,1358.55L711.543,1485.86C645.128,1510.04 591.035,1559.6 561.166,1623.66C531.296,1687.72 528.096,1761.01 552.269,1827.43L797.065,2500L0,2500L0,-0L1000.67,-0L1001,0.002C1073.58,0.025 1144.37,7.793 1212.57,22.521L1213.23,22.664L1213.16,22.521C1663.49,119.827 2001.32,520.772 2001.32,1000C2001.32,1146.81 1969.62,1286.28 1912.69,1411.9ZM615.81,1467.63L265.688,718.048C230.995,643.771 263.083,555.433 337.36,520.74C411.636,486.046 499.974,518.134 534.668,592.411L854.912,1278.03L929.685,416.737C936.775,335.066 1008.73,274.607 1090.4,281.697L1090.4,281.698C1172.08,288.788 1232.54,360.745 1225.45,442.417L1168.15,1102.45C1174.86,1025.08 1243.03,967.801 1320.41,974.519C1357.56,977.744 1391.92,995.598 1415.91,1024.15C1439.9,1052.71 1451.57,1089.62 1448.34,1126.78L1442.42,1195C1445.46,1159.98 1462.28,1127.61 1489.19,1105C1516.1,1082.39 1550.89,1071.4 1585.9,1074.44L1585.91,1074.44C1659.14,1080.8 1713.36,1145.32 1707,1218.56L1672.56,1615.21C1669.52,1650.3 1652.65,1682.75 1625.69,1705.4C1598.72,1728.07 1563.85,1739.08 1528.76,1736.04C1455.68,1729.69 1401.59,1665.31 1407.93,1592.24L1408.61,1584.45C1401.89,1661.83 1333.72,1719.11 1256.35,1712.39C1219.19,1709.16 1184.84,1691.31 1160.85,1662.75C1155.69,1656.62 1151.1,1650.09 1147.11,1643.26L1162.88,1637.52C1255.68,1603.74 1303.53,1501.13 1269.76,1408.33L1269.75,1408.32C1235.98,1315.52 1133.36,1267.67 1040.56,1301.45L690.761,1428.76C663.968,1438.52 638.809,1451.63 615.81,1467.63Z"/>
                    </g>
                </g>
            </g>
        </g>
    </g>
</svg>
